<svg xmlns="http://www.w3.org/2000/svg" viewBox="0 0 120 120">
  <defs>
    <linearGradient id="bg" x1="0%" y1="0%" x2="100%" y2="100%">
      <stop offset="0%" style="stop-color:#00703C"/>
      <stop offset="100%" style="stop-color:#10b981"/>
    </linearGradient>
    <linearGradient id="rf" x1="0%" y1="0%" x2="100%" y2="100%">
      <stop offset="0%" style="stop-color:#e74c3c"/>
      <stop offset="100%" style="stop-color:#c0392b"/>
    </linearGradient>
  </defs>

  <!-- Rounded square bg -->
  <rect x="4" y="4" width="112" height="112" rx="24" fill="url(#bg)"/>

  <!-- Banderitas -->
  <line x1="18" y1="28" x2="102" y2="28" stroke="rgba(255,255,255,0.5)" stroke-width="1"/>
  <polygon points="22,28 28,28 25,35" fill="#e74c3c"/>
  <polygon points="32,28 38,28 35,35" fill="#3498db"/>
  <polygon points="42,28 48,28 45,35" fill="#f1c40f"/>
  <polygon points="52,28 58,28 55,35" fill="#2ecc71"/>
  <polygon points="62,28 68,28 65,35" fill="#e67e22"/>
  <polygon points="72,28 78,28 75,35" fill="#9b59b6"/>
  <polygon points="82,28 88,28 85,35" fill="#1abc9c"/>
  <polygon points="92,28 98,28 95,35" fill="#e74c3c"/>

  <!-- Roof -->
  <polygon points="18,48 60,32 102,48" fill="url(#rf)"/>

  <!-- Wall -->
  <rect x="24" y="48" width="72" height="36" fill="#f5e6d3"/>

  <!-- Counter/shelves -->
  <rect x="30" y="52" width="60" height="20" rx="2" fill="#4a2a0a"/>
  <!-- Products -->
  <rect x="33" y="54" width="6" height="8" rx="1" fill="#e74c3c"/>
  <rect x="41" y="55" width="5" height="7" rx="1" fill="#3498db"/>
  <rect x="48" y="54" width="6" height="8" rx="1" fill="#f1c40f"/>
  <rect x="56" y="55" width="5" height="7" rx="1" fill="#2ecc71"/>
  <rect x="63" y="54" width="6" height="8" rx="1" fill="#e67e22"/>
  <rect x="71" y="55" width="5" height="7" rx="1" fill="#9b59b6"/>
  <rect x="78" y="54" width="6" height="8" rx="1" fill="#1abc9c"/>

  <rect x="33" y="64" width="7" height="6" rx="1" fill="#27ae60"/>
  <rect x="42" y="64" width="6" height="6" rx="1" fill="#d35400"/>
  <rect x="50" y="64" width="7" height="6" rx="1" fill="#8e44ad"/>
  <rect x="59" y="64" width="6" height="6" rx="1" fill="#c0392b"/>
  <rect x="67" y="64" width="7" height="6" rx="1" fill="#16a085"/>
  <rect x="76" y="64" width="7" height="6" rx="1" fill="#e74c3c"/>

  <!-- Counter surface -->
  <rect x="22" y="73" width="76" height="5" rx="2" fill="#A0522D"/>

  <!-- Text -->
  <text x="60" y="94" text-anchor="middle" font-family="'Fredoka', Arial, sans-serif" font-weight="700" font-size="13" fill="white" letter-spacing="0.5">TESS</text>
  <text x="60" y="104" text-anchor="middle" font-family="'Fredoka', Arial, sans-serif" font-weight="500" font-size="6.5" fill="rgba(255,255,255,0.85)" letter-spacing="1.5">SARI-SARI STORE</text>
</svg>
